<svg height="512pt" viewBox="0 -43 512.00014 512" width="512pt" xmlns="http://www.w3.org/2000/svg"><path d="m503.464844 341.332031h-26.996094c1.183594-2.191406 2.386719-4.375 3.625-6.519531 3.382812-5.503906 6.296875-11.28125 8.703125-17.277344 8.378906-22.367187 10.496094-53.121094-8.703125-72.355468-19.539062-17.898438-48.9375-19.675782-70.492188-4.265626-21.558593-15.402343-50.953124-13.621093-70.496093 4.265626-2.375 2.386718-4.488281 5.023437-6.304688 7.859374-1.816406-2.835937-3.929687-5.46875-6.308593-7.851562-19.539063-17.894531-48.9375-19.675781-70.492188-4.265625-21.558594-15.398437-50.949219-13.621094-70.492188 4.265625-2.375 2.390625-4.492187 5.023438-6.308593 7.859375-1.8125-2.835937-3.929688-5.464844-6.304688-7.851563-19.539062-17.894531-48.9375-19.675781-70.496093-4.265624-21.554688-15.398438-50.949219-13.621094-70.492188 4.265624-19.199219 19.246094-17.066406 50-8.703125 72.363282 2.40625 5.996094 5.320313 11.777344 8.703125 17.28125 1.238281 2.140625 2.441406 4.324218 3.625 6.519531h-26.996094c-4.714844 0-8.535156 3.820313-8.535156 8.53125 0 4.714844 3.820312 8.535156 8.535156 8.535156h34.132813c.953125 3.234375 1.628906 6.546875 2.019531 9.898438.957031 10.980469 2.730469 21.875 5.308594 32.589843 2.109375 8.34375 6.597656 25.753907 22.539062 25.753907 9.1875 0 19.503906-6.964844 26.390625-58.617188.855469-6.160156 2.382813-7.894531 3.5-8.421875 1.117188.527344 2.671875 2.253906 3.5 8.40625 6.859375 51.667969 17.175781 58.632813 26.339844 58.632813 15.914063 0 20.402344-17.410157 22.546875-25.710938 2.582031-10.746093 4.359375-21.667969 5.316406-32.675781.398438-3.347656 1.085938-6.652344 2.046875-9.882812h34.089844c.957031 3.238281 1.632813 6.550781 2.023437 9.898437.953126 10.980469 2.726563 21.875 5.308594 32.589844 2.105469 8.371093 6.59375 25.78125 22.535156 25.78125 9.191407 0 19.507813-6.964844 26.394532-58.617188.851562-6.160156 2.378906-7.894531 3.5-8.421875 1.117187.527344 2.667968 2.253906 3.496094 8.40625 6.863281 51.667969 17.179687 58.632813 26.34375 58.632813 15.914062 0 20.402343-17.410157 22.542968-25.710938 2.585938-10.746093 4.363282-21.667969 5.316406-32.675781.402344-3.347656 1.085938-6.652344 2.050782-9.882812h34.089844c.953124 3.238281 1.632812 6.550781 2.023437 9.898437.953125 10.980469 2.726563 21.875 5.304687 32.589844 2.109376 8.371093 6.597657 25.78125 22.539063 25.78125 9.1875 0 19.507813-6.964844 26.390625-58.617188.855469-6.160156 2.382812-7.894531 3.5-8.421875 1.117188.527344 2.671875 2.253906 3.5 8.40625 6.859375 51.667969 17.175781 58.632813 26.339844 58.632813 15.917968 0 20.40625-17.410157 22.546875-25.710938 2.582031-10.746093 4.359375-21.667969 5.316406-32.675781.398437-3.347656 1.085937-6.652344 2.046875-9.882812h34.089844c4.714844 0 8.535156-3.820313 8.535156-8.53125 0-4.714844-3.820312-8.535157-8.535156-8.535157zm-170.664063-18.5c1.96875 4.199219 4.113281 8.203125 6.304688 11.949219 1.238281 2.140625 2.441406 4.324219 3.628906 6.519531h-19.867187c1.1875-2.195312 2.390624-4.378906 3.625-6.519531 2.1875-3.746094 4.328124-7.75 6.308593-11.949219zm-153.601562 0c1.972656 4.199219 4.113281 8.203125 6.308593 11.949219 1.234376 2.140625 2.4375 4.324219 3.625 6.519531h-19.867187c1.1875-2.195312 2.390625-4.378906 3.628906-6.519531 2.183594-3.746094 4.324219-7.75 6.304688-11.949219zm-36.019531 43.613281c-.847657 10.171876-2.472657 20.261719-4.863282 30.183594-.699218 4.425782-2.359375 8.648438-4.863281 12.367188-5.964844-13.707032-9.5625-28.324219-10.632813-43.230469-2.398437-17.699219-11.871093-22.460937-19.40625-23.339844-.335937.011719-.671874.039063-1.003906.085938-.339844-.050781-.683594-.078125-1.027344-.085938-7.535156.851563-17.003906 5.640625-19.402343 23.355469-1.074219 14.902344-4.667969 29.515625-10.632813 43.214844-2.507812-3.742188-4.171875-7.980469-4.882812-12.425782-2.378906-9.902343-4-19.96875-4.84375-30.113281-.773438-6.554687-2.355469-12.984375-4.703125-19.148437-.113281-.414063-.261719-.816406-.4375-1.203125-1.367188-3.613281-2.921875-7.148438-4.667969-10.59375-1.609375-3.164063-3.410156-6.21875-5.117188-9.265625-2.898437-4.691406-5.40625-9.613282-7.492187-14.71875-6.222656-16.597656-8.695313-40.789063 4.804687-54.324219 15.085938-13.265625 37.75-13 52.519532.613281.085937.078125.199218.105469.285156.179688.082031.078125.125.195312.21875.273437 9.414062 7.679688 16.75 17.601563 21.335938 28.851563 1.269531 4.539062 5.980468 7.1875 10.519531 5.914062 4.539062-1.273437 7.1875-5.984375 5.914062-10.523437-3.878906-11.351563-10.390625-21.632813-18.996093-29.992188 14.472656-8.246093 32.585937-6.359375 45.046874 4.691407 13.5 13.527343 11.027344 37.71875 4.804688 54.308593-2.085938 5.105469-4.589844 10.03125-7.492188 14.726563-1.765624 3.046875-3.523437 6.101562-5.117187 9.265625-1.742187 3.449219-3.300781 6.988281-4.667969 10.601562-.179687.386719-.324218.785157-.4375 1.195313-2.367187 6.15625-3.96875 12.585937-4.761718 19.136718zm153.601562 0c-.847656 10.171876-2.472656 20.261719-4.863281 30.183594-.703125 4.425782-2.363281 8.648438-4.863281 12.367188-5.96875-13.707032-9.5625-28.324219-10.632813-43.230469-2.398437-17.699219-11.871094-22.460937-19.40625-23.339844-.335937.007813-.671875.035157-1.007813.085938-.339843-.050781-.679687-.078125-1.023437-.085938-7.535156.851563-17.007813 5.640625-19.40625 23.355469-1.070313 14.902344-4.664063 29.515625-10.632813 43.214844-2.507812-3.742188-4.171874-7.980469-4.878906-12.425782-2.378906-9.902343-4-19.96875-4.847656-30.113281-.773438-6.554687-2.351562-12.984375-4.703125-19.148437-.113281-.414063-.257813-.816406-.433594-1.203125-1.367187-3.613281-2.925781-7.148438-4.667969-10.59375-1.613281-3.164063-3.371093-6.21875-5.121093-9.265625-2.898438-4.691406-5.402344-9.613282-7.492188-14.71875-6.21875-16.597656-8.695312-40.789063 4.804688-54.324219 15.085937-13.265625 37.753906-13 52.523437.613281.085938.078125.195313.105469.28125.179688.085938.078125.128906.195312.222656.273437 9.414063 7.679688 16.746094 17.601563 21.332032 28.851563.824218 2.9375 3.152344 5.210937 6.105468 5.964844 2.953126.753906 6.085938-.125 8.21875-2.304688 2.128907-2.179688 2.933594-5.332031 2.113282-8.269531-3.882813-11.351563-10.390625-21.632813-18.996094-29.992188 14.472656-8.246093 32.585938-6.359375 45.046875 4.691407 13.5 13.527343 11.023437 37.71875 4.804687 54.308593-2.085937 5.105469-4.59375 10.03125-7.492187 14.726563-1.765625 3.046875-3.523437 6.101562-5.121094 9.265625-1.742187 3.449219-3.300781 6.988281-4.667969 10.601562-.175781.386719-.320312.785157-.433593 1.195313-2.371094 6.15625-3.96875 12.585937-4.761719 19.136718zm153.597656 0c-.84375 10.171876-2.472656 20.261719-4.863281 30.183594-.699219 4.425782-2.359375 8.648438-4.863281 12.367188-5.964844-13.707032-9.558594-28.324219-10.632813-43.230469-2.398437-17.699219-11.867187-22.460937-19.402343-23.339844-.339844.011719-.675782.039063-1.007813.085938-.339844-.050781-.683594-.078125-1.023437-.085938-7.535157.851563-17.007813 5.640625-19.40625 23.355469-1.070313 14.902344-4.667969 29.515625-10.632813 43.214844-2.507813-3.742188-4.171875-7.980469-4.878906-12.425782-2.382813-9.902343-4.003907-19.96875-4.847657-30.113281-.773437-6.554687-2.355468-12.984375-4.703124-19.148437-.113282-.414063-.257813-.816406-.433594-1.203125-1.367188-3.613281-2.925782-7.148438-4.667969-10.59375-1.613281-3.164063-3.414063-6.21875-5.121094-9.265625-2.898437-4.691406-5.40625-9.613282-7.492187-14.71875-6.222656-16.597656-8.695313-40.789063 4.804687-54.324219 15.085938-13.265625 37.75-13 52.523438.613281.082031.078125.195312.105469.28125.179688.085937.078125.125.195312.222656.273437 9.410156 7.679688 16.746094 17.601563 21.332031 28.851563 1.273438 4.539062 5.984375 7.1875 10.519532 5.914062 4.539062-1.273437 7.1875-5.984375 5.914062-10.523437-3.878906-11.351563-10.386719-21.632813-18.992188-29.992188 14.46875-8.246093 32.585938-6.359375 45.046876 4.691407 13.5 13.527343 11.023437 37.71875 4.804687 54.308593-2.089844 5.105469-4.59375 10.03125-7.492187 14.726563-1.769532 3.046875-3.527344 6.101562-5.121094 9.265625-1.742188 3.449219-3.300782 6.988281-4.667969 10.601562-.175781.386719-.324219.785157-.4375 1.195313-2.367187 6.15625-3.96875 12.585937-4.761719 19.136718zm0 0"/><path d="m479.890625 69.675781c18.074219-1.09375 32.160156-16.101562 32.109375-34.210937-.007812-9.34375-3.84375-18.277344-10.617188-24.714844-6.773437-6.4375-15.890624-9.816406-25.222656-9.351562l-301.507812 15.550781c-17.875-11.023438-38.453125-16.8906252-59.453125-16.949219-47.65625.300781-90.273438 29.742188-107.421875 74.207031-17.152344 44.464844-5.339844 94.894531 29.769531 127.121094 4.3125 3.851563 10.585937 4.570313 15.660156 1.789063 5.226563-2.789063 8.117188-8.589844 7.191407-14.445313-.859376-5.527344-.828126-11.15625.085937-16.675781 4.332031-23.839844 24.191406-41.765625 48.351563-43.636719 4.269531-.558594 8.59375-.558594 12.867187 0 24.097656 1.90625 43.890625 19.796875 48.222656 43.578125.921875 5.535156.953125 11.179688.09375 16.726562-.925781 5.855469 1.960938 11.65625 7.191407 14.445313 5.117187 2.800781 11.445312 2.042969 15.753906-1.886719 9.453125-8.703125 17.382812-18.929687 23.457031-30.257812l259.480469 15.164062c.660156 0 1.316406.050782 1.964844.050782 18.210937-.316407 32.964843-14.875 33.523437-33.082032.558594-18.203125-13.277344-33.640625-31.433594-35.074218l-250.410156-15.164063c-.710937-6.152344-1.921875-12.242187-3.617187-18.199219zm-2.886719-51.199219c4.664063-.195312 9.207032 1.488282 12.621094 4.664063 4.925781 4.703125 6.605469 11.871094 4.28125 18.273437-2.328125 6.398438-8.21875 10.816407-15.015625 11.253907l-259.070313 15.265625c-5.945312-13.070313-14.253906-24.933594-24.507812-34.984375zm-289.332031 163.933594c.109375-4.375-.175781-8.75-.851563-13.074218-5.4375-31.390626-31.347656-55.171876-63.085937-57.90625-5.648437-.648438-11.351563-.648438-17 0-31.773437 2.738281-57.707031 26.550781-63.144531 57.972656-.679688 4.300781-.964844 8.65625-.855469 13.007812-35.761719-39.171875-33.925781-99.667968 4.144531-136.601562 38.066406-36.929688 98.59375-36.929688 136.660156 0 38.070313 36.933594 39.902344 97.429687 4.144532 136.601562zm307.261719-30.328125c-.007813 4.691407-1.945313 9.171875-5.355469 12.390625-3.414063 3.21875-8 4.890625-12.683594 4.625l-253.117187-14.796875c3.878906-11.042969 6.042968-22.609375 6.425781-34.304687l248.714844 15.070312c8.992187.554688 16.003906 8.003906 16.015625 17.015625zm0 0"/><path d="m115.199219 25.601562c-21.207031 0-38.398438 17.191407-38.398438 38.398438s17.191407 38.398438 38.398438 38.398438 38.402343-17.191407 38.402343-38.398438c-.023437-21.199219-17.203124-38.375-38.402343-38.398438zm0 17.066407c2.660156.011719 5.289062.523437 7.757812 1.507812l-27.578125 27.582031c-.988281-2.46875-1.5-5.101562-1.511718-7.757812 0-11.78125 9.550781-21.332031 21.332031-21.332031zm0 42.664062c-2.65625-.011719-5.289063-.523437-7.757813-1.507812l27.582032-27.582031c.984374 2.46875 1.5 5.101562 1.511718 7.757812 0 5.65625-2.25 11.085938-6.25 15.085938s-9.425781 6.246093-15.085937 6.246093zm0 0"/><path d="m76.800781 273.066406c-14.140625 0-25.601562 11.460938-25.601562 25.601563 0 14.136719 11.460937 25.597656 25.601562 25.597656 14.136719 0 25.597657-11.460937 25.597657-25.597656 0-14.140625-11.460938-25.601563-25.597657-25.601563zm0 34.132813c-4.714843 0-8.535156-3.820313-8.535156-8.53125 0-4.714844 3.820313-8.535157 8.535156-8.535157 4.710938 0 8.53125 3.820313 8.53125 8.535157 0 4.710937-3.820312 8.53125-8.53125 8.53125zm0 0"/></svg>