<svg height="512pt" viewBox="0 0 512 512" width="512pt" xmlns="http://www.w3.org/2000/svg"><path d="m469.332031 0h-426.664062c-23.554688.0273438-42.6406252 19.113281-42.667969 42.667969v426.664062c.0273438 23.554688 19.113281 42.640625 42.667969 42.667969h426.664062c23.554688-.027344 42.640625-19.113281 42.667969-42.667969v-426.664062c-.027344-23.554688-19.113281-42.6406252-42.667969-42.667969zm25.601563 469.332031c0 14.140625-11.460938 25.601563-25.601563 25.601563h-426.664062c-14.140625 0-25.601563-11.460938-25.601563-25.601563v-426.664062c0-14.140625 11.460938-25.601563 25.601563-25.601563h426.664062c14.140625 0 25.601563 11.460938 25.601563 25.601563zm0 0"/><path d="m51.199219 59.734375h68.265625c4.714844 0 8.535156-3.820313 8.535156-8.535156 0-4.710938-3.820312-8.53125-8.535156-8.53125h-68.265625c-4.710938 0-8.53125 3.820312-8.53125 8.53125 0 4.714843 3.820312 8.535156 8.53125 8.535156zm0 0"/><path d="m51.199219 93.867188h34.132812c4.714844 0 8.535157-3.820313 8.535157-8.535157 0-4.710937-3.820313-8.53125-8.535157-8.53125h-34.132812c-4.710938 0-8.53125 3.820313-8.53125 8.53125 0 4.714844 3.820312 8.535157 8.53125 8.535157zm0 0"/><path d="m406.332031 220.40625c15.964844-39.550781 20.242188-93.703125-15.625-127.070312-34.535156-32.203126-95.683593-33.347657-134.707031-3.796876-39.03125-29.550781-100.191406-28.40625-134.722656 3.796876-35.839844 33.367187-31.574219 87.519531-15.625 127.078124 4.699218 10.796876 10.332031 21.164063 16.835937 30.976563l.117188.199219c3.269531 5.230468 6.539062 10.46875 9.523437 15.921875 8.75 15.015625 14.476563 31.597656 16.855469 48.808593 1.828125 20.113282 5.308594 40.042969 10.410156 59.582032 3.070313 11.09375 8.832031 31.777344 24.140625 39.347656 1.492188 23.347656 3.667969 41.667969 4.265625 46.609375.535157 4.269531 4.164063 7.472656 8.464844 7.472656.359375.003907.714844-.019531 1.066406-.066406 4.675781-.585937 7.992188-4.847656 7.410157-9.523437-1.265626-10.121094-2.75-25.148438-3.867188-42.0625 9.710938-2.269532 27.304688-16.210938 39.628906-101.980469 2.875-19.789063 10.9375-21.800781 15.480469-22.367188 4.539063.566407 12.601563 2.5625 15.488281 22.351563 12.3125 85.886718 29.96875 99.769531 39.667969 102.007812-1.117187 16.910156-2.558594 31.929688-3.863281 42.050782-.582032 4.675781 2.730468 8.9375 7.40625 9.523437.347656.046875.699218.070313 1.050781.066406 4.296875-.003906 7.921875-3.207031 8.457031-7.472656.621094-4.941406 2.796875-23.28125 4.265625-46.636719 15.265625-7.59375 21.015625-28.253906 24.070313-39.253906 5.089844-19.570312 8.578125-39.527344 10.4375-59.664062 2.378906-17.210938 8.101562-33.792969 16.84375-48.808594 3.023437-5.496094 6.316406-10.789063 9.609375-16.0625 6.53125-9.828125 12.191406-20.210938 16.914062-31.027344zm-273.449219-114.59375c29.667969-27.664062 85.640626-27.179688 117.425782 1.007812.328125.214844.671875.414063 1.023437.589844 1.394531.898438 3.007813 1.410156 4.667969 1.476563.550781-.015625 1.09375-.089844 1.628906-.214844.523438-.082031 1.039063-.214844 1.535156-.390625.527344-.234375 1.027344-.519531 1.496094-.855469.351563-.167969.691406-.363281 1.015625-.578125 31.785157-28.160156 87.765625-28.671875 117.433594-1 27.136719 25.242188 25.710937 66.464844 14.574219 99.582032-1.6875-17.980469-9.765625-34.761719-22.765625-47.296876-29.363281-27.445312-81.28125-28.691406-114.882813-3.976562-33.578125-24.6875-85.523437-23.453125-114.960937 3.964844-12.972657 12.539062-21.042969 29.300781-22.75 47.257812-11.164063-33.132812-12.570313-74.316406 14.558593-99.566406zm155.46875 207.429688c-3.304687-22.640626-13.859374-35.082032-31.40625-36.984376-.328124.007813-.65625.035157-.980468.085938-.320313-.050781-.644532-.078125-.972656-.085938-17.527344 1.902344-28.089844 14.34375-31.382813 36.992188-7.597656 52.90625-17.726563 77.535156-23.808594 85.121094-1.707031-41.148438-.257812-87.039063 11.824219-103.117188 20.585938-27.453125.660156-53.992187-12.515625-71.550781-4.992187-5.496094-8.859375-11.917969-11.375-18.902344-.007813-.78125.066406-1.558593.230469-2.320312 3.054687-2.101563 18.328125 1.707031 27.449218 4.042969 13.207032 3.890624 26.832032 6.175781 40.585938 6.808593 13.753906-.636719 27.378906-2.929687 40.585938-6.824219 9.121093-2.296874 24.394531-6.164062 27.304687-4.164062.304687.78125.433594 1.621094.375 2.457031-2.515625 6.984375-6.382813 13.40625-11.375 18.902344-13.175781 17.558594-33.101563 44.097656-12.515625 71.550781 12.082031 16.101563 13.550781 62.003906 11.816406 103.167969-6.074218-7.527344-16.238281-32.136719-23.839844-85.179687zm47.785157 58.101562c-1.59375 6.277344-3.753907 12.394531-6.453125 18.28125 1.152344-40.109375-1.242188-85.394531-15.65625-104.613281-11.949219-15.972657-2.371094-31.238281 12.519531-51.0625 7.960937-10.570313 14.785156-19.703125 14.785156-29.148438.394531-6.054687-2.144531-11.929687-6.824219-15.789062-9.386718-7.292969-23.792968-3.652344-42.105468.964843-11.847656 3.5-24.066406 5.609376-36.402344 6.289063-12.339844-.675781-24.558594-2.789063-36.410156-6.289063-18.3125-4.617187-32.761719-8.269531-42.105469-.964843-4.675781 3.863281-7.214844 9.734375-6.816406 15.789062 0 9.445313 6.824219 18.578125 14.785156 29.148438 14.890625 19.824219 24.46875 35.089843 12.519531 51.0625-14.421875 19.234375-16.808594 64.582031-15.648437 104.714843-2.738281-5.9375-4.921875-12.113281-6.527344-18.449218-4.839844-18.679688-8.148437-37.71875-9.890625-56.933594-2.617188-19.40625-9.019531-38.109375-18.84375-55.050781-2.882812-5.253907-6.03125-10.316407-9.179688-15.359375-3.816406-15.359375-9.207031-50.960938 14.796876-73.335938 24.644531-22.960937 71.191406-22.578125 97.664062.855469.324219.222656.667969.417969 1.023438.585937.457031.335938.945312.621094 1.457031.855469.511719.1875 1.042969.324219 1.578125.410157 1.046875.273437 2.148437.273437 3.195312 0 .535156-.085938 1.066406-.222657 1.578125-.410157.824219-.488281 1.652344-.96875 2.480469-1.441406 26.453125-23.417969 72.976562-23.835937 97.589844-.855469 23.996094 22.273438 18.628906 57.898438 14.804687 73.386719-3.140625 5.042969-6.28125 10.09375-9.164062 15.359375-5.894531 10.582031-10.644531 21.761719-14.167969 33.347656-.257812.609375-.441406 1.246094-.542969 1.894532-1.914062 6.472656-3.308593 13.082031-4.167969 19.773437-1.753906 19.230469-5.054687 38.285156-9.871093 56.984375zm0 0"/><path d="m119.464844 349.867188h-68.265625c-4.710938 0-8.53125 3.820312-8.53125 8.53125 0 4.714843 3.820312 8.535156 8.53125 8.535156h68.265625c4.714844 0 8.535156-3.820313 8.535156-8.535156 0-4.710938-3.820312-8.53125-8.535156-8.53125zm0 0"/><path d="m119.464844 384h-68.265625c-4.710938 0-8.53125 3.820312-8.53125 8.535156 0 4.710938 3.820312 8.53125 8.53125 8.53125h68.265625c4.714844 0 8.535156-3.820312 8.535156-8.53125 0-4.714844-3.820312-8.535156-8.535156-8.535156zm0 0"/><path d="m119.464844 418.132812h-68.265625c-4.710938 0-8.53125 3.820313-8.53125 8.535157 0 4.710937 3.820312 8.53125 8.53125 8.53125h68.265625c4.714844 0 8.535156-3.820313 8.535156-8.53125 0-4.714844-3.820312-8.535157-8.535156-8.535157zm0 0"/><path d="m119.464844 452.265625h-68.265625c-4.710938 0-8.53125 3.820313-8.53125 8.535156 0 4.710938 3.820312 8.53125 8.53125 8.53125h68.265625c4.714844 0 8.535156-3.820312 8.535156-8.53125 0-4.714843-3.820312-8.535156-8.535156-8.535156zm0 0"/><path d="m460.800781 349.867188h-68.265625c-4.714844 0-8.535156 3.820312-8.535156 8.53125 0 4.714843 3.820312 8.535156 8.535156 8.535156h68.265625c4.710938 0 8.53125-3.820313 8.53125-8.535156 0-4.710938-3.820312-8.53125-8.53125-8.53125zm0 0"/><path d="m460.800781 384h-68.265625c-4.714844 0-8.535156 3.820312-8.535156 8.535156 0 4.710938 3.820312 8.53125 8.535156 8.53125h68.265625c4.710938 0 8.53125-3.820312 8.53125-8.53125 0-4.714844-3.820312-8.535156-8.53125-8.535156zm0 0"/><path d="m460.800781 418.132812h-68.265625c-4.714844 0-8.535156 3.820313-8.535156 8.535157 0 4.710937 3.820312 8.53125 8.535156 8.53125h68.265625c4.710938 0 8.53125-3.820313 8.53125-8.53125 0-4.714844-3.820312-8.535157-8.53125-8.535157zm0 0"/><path d="m460.800781 452.265625h-68.265625c-4.714844 0-8.535156 3.820313-8.535156 8.535156 0 4.710938 3.820312 8.53125 8.535156 8.53125h68.265625c4.710938 0 8.53125-3.820312 8.53125-8.53125 0-4.714843-3.820312-8.535156-8.53125-8.535156zm0 0"/></svg>