<svg height="512pt" viewBox="0 -51 512.00804 512" width="512pt" xmlns="http://www.w3.org/2000/svg"><path d="m185.53125 14.839844c-2.390625 2.402344-4.511719 5.0625-6.324219 7.925781-1.820312-2.855469-3.941406-5.503906-6.332031-7.902344-19.484375-17.921875-48.828125-19.832031-70.46875-4.582031-21.636719-15.25-50.976562-13.351562-70.46875 4.558594-14.285156 14.273437-18.578125 38.117187-11.449219 63.8125.851563 2.976562 1.765625 5.859375 2.773438 8.53125 2.402343 6.039062 5.324219 11.859375 8.726562 17.398437 1.589844 2.742188 3.183594 5.488281 4.609375 8.277344.777344 1.5625 1.5625 3.117187 2.261719 4.753906 1.09375 2.550781 3.355469 4.40625 6.066406 4.984375 18.921875 3.777344 38.183594 5.605469 57.480469 5.453125 19.300781.144531 38.5625-1.691406 57.488281-5.480469 2.710938-.574218 4.972657-2.429687 6.066407-4.972656.710937-1.640625 1.488281-3.199218 2.261718-4.761718 1.289063-2.5625 2.773438-5.078126 4.21875-7.519532l.613282-1.046875c2.132812-3.765625 4.265624-7.679687 6.152343-11.847656 1.929688 4.125 4.019531 8.101563 6.210938 11.949219l.488281.851562c1.457031 2.46875 2.960938 5.011719 4.265625 7.621094.777344 1.5625 1.5625 3.113281 2.261719 4.753906 1.09375 2.546875 3.355468 4.40625 6.066406 4.984375 18.929688 3.785157 38.203125 5.617188 57.507812 5.46875 19.296876.144531 38.5625-1.691406 57.488282-5.480469 2.710937-.574218 4.972656-2.429687 6.066406-4.972656.707031-1.640625 1.484375-3.199218 2.261719-4.761718 1.289062-2.5625 2.773437-5.078126 4.214843-7.519532l.613282-1.046875c2.136718-3.765625 4.269531-7.679687 6.152344-11.847656 1.929687 4.125 4.019531 8.101563 6.214843 11.949219l.484375.851562c1.460938 2.46875 2.960938 5.011719 4.269532 7.621094.773437 1.5625 1.558593 3.113281 2.261718 4.753906 1.089844 2.546875 3.351563 4.40625 6.066406 4.984375 18.929688 3.785157 38.199219 5.617188 57.503907 5.46875 19.300781.144531 38.566406-1.691406 57.488281-5.480469 2.710938-.574218 4.972656-2.429687 6.070312-4.972656.707032-1.640625 1.484376-3.199218 2.234376-4.703125 1.449218-2.847656 3.046874-5.597656 4.632812-8.335937 3.402344-5.519532 6.316406-11.324219 8.714844-17.347656 1.023437-2.699219 1.953125-5.582032 2.796875-8.535157v-.050781c7.074219-25.652344 2.78125-49.492188-11.484375-63.753906-19.476563-17.917969-48.8125-19.828125-70.453125-4.589844-21.632813-15.25-50.976563-13.351562-70.46875 4.558594-2.390625 2.402344-4.515625 5.058594-6.332031 7.925781-1.816407-2.855469-3.941407-5.503906-6.328126-7.902344-19.484374-17.921875-48.832031-19.832031-70.46875-4.582031-21.640624-15.253906-50.984374-13.355469-70.476562 4.558594zm-17.683594 59.40625c-.1875.734375-.433594 1.476562-.679687 2.152344-.105469.277343-.195313.5625-.265625.851562-.355469 1.328125-.796875 2.632812-1.324219 3.902344-2.054687 5.039062-4.5 9.910156-7.3125 14.574218l-.539063.921876c-1.628906 2.773437-3.308593 5.621093-4.769531 8.53125l-.75 1.511718c-32.972656 5.597656-66.652343 5.597656-99.625 0l-.785156-1.570312c-1.597656-3.125-3.328125-6.125-5.070313-9.128906-2.917968-4.730469-5.4375-9.691407-7.527343-14.839844-.851563-2.253906-1.621094-4.660156-2.3125-7.101563-2.03125-7.363281-7.527344-32.527343 7.125-47.171875 15.0625-13.28125 37.722656-13.03125 52.488281.570313.078125.078125.1875.09375.265625.171875s.144531.214844.257813.308594c9.46875 7.621093 16.816406 17.554687 21.332031 28.839843 1.273437 4.539063 5.984375 7.1875 10.523437 5.914063 4.535156-1.269532 7.183594-5.980469 5.910156-10.519532-3.886718-11.355468-10.394531-21.636718-19.003906-30.003906 14.476563-8.230468 32.582032-6.332031 45.03125 4.726563 6.804688 7.609375 10.34375 17.582031 9.855469 27.777343-.042969 6.625-.992187 13.214844-2.824219 19.582032zm183.367188-47.351563c15.058594-13.277343 37.71875-13.03125 52.488281.574219.074219.074219.1875.09375.261719.167969.078125.078125.144531.214843.257812.308593 9.472656 7.621094 16.820313 17.554688 21.332032 28.84375.824218 2.933594 3.152343 5.207032 6.105468 5.964844 2.953125.753906 6.085938-.125 8.21875-2.304687 2.128906-2.179688 2.933594-5.332031 2.113282-8.269531-3.886719-11.355469-10.398438-21.636719-19.003907-30.003907 14.472657-8.230469 32.582031-6.328125 45.027344 4.730469 14.628906 14.625 9.15625 39.753906 7.117187 47.136719-.699218 2.484375-1.464843 4.882812-2.335937 7.175781-2.082031 5.132812-4.59375 10.082031-7.511719 14.789062-1.707031 3.003907-3.472656 5.972657-5.117187 9.191407l-.753907 1.507812c-32.972656 5.597657-66.652343 5.597657-99.625 0-.257812-.503906-.503906-1.003906-.75-1.5-1.484374-2.960937-3.175781-5.855469-4.839843-8.671875l-.433594-.742187c-2.835937-4.695313-5.300781-9.605469-7.375-14.683594-.515625-1.261719-.953125-2.550781-1.304687-3.867187-.066407-.28125-.160157-.5625-.257813-.851563-.246094-.675781-.492187-1.417969-.75-2.390625-1.785156-6.292969-2.707031-12.796875-2.738281-19.335938-.480469-10.191406 3.066406-20.164062 9.875-27.769531zm-101.113282.574219c.078126.074219.1875.09375.265626.167969.074218.078125.144531.214843.253906.308593 9.472656 7.621094 16.820312 17.554688 21.335937 28.84375 1.269531 4.539063 5.980469 7.183594 10.519531 5.914063 4.539063-1.273437 7.1875-5.984375 5.914063-10.523437-3.886719-11.355469-10.398437-21.636719-19.003906-30.003907 14.472656-8.230469 32.582031-6.328125 45.03125 4.730469 6.796875 7.601562 10.335937 17.570312 9.855469 27.757812-.035157 6.640626-.984376 13.242188-2.816407 19.625-.1875.734376-.433593 1.476563-.683593 2.152344-.101563.277344-.191407.5625-.261719.851563-.355469 1.328125-.796875 2.632812-1.324219 3.902343-2.058594 5.039063-4.503906 9.910157-7.3125 14.574219l-.539062.921875c-1.628907 2.773438-3.308594 5.621094-4.769532 8.53125l-.75 1.511719c-32.972656 5.597656-66.65625 5.597656-99.628906 0-.253906-.503906-.503906-1.007813-.75-1.503906-1.484375-2.960938-3.175781-5.851563-4.835938-8.667969l-.4375-.742188c-2.832031-4.699218-5.296874-9.609374-7.371093-14.6875-.519531-1.257812-.953125-2.550781-1.308594-3.863281-.066406-.28125-.160156-.5625-.253906-.855469-.246094-.671874-.496094-1.414062-.75-2.386718-1.789063-6.300782-2.710938-12.816406-2.742188-19.363282-.476562-10.195312 3.074219-20.167968 9.882813-27.769531 15.058594-13.273437 37.714844-13.027343 52.480468.574219zm0 0"/><path d="m256.007812 145.117188c-4.714843 0-8.535156 3.820312-8.535156 8.53125v64.734374l-11.03125-11.03125c-2.144531-2.21875-5.316406-3.109374-8.300781-2.328124s-5.3125 3.109374-6.09375 6.09375c-.78125 2.984374.109375 6.15625 2.328125 8.300781l25.597656 25.597656c1.601563 1.601563 3.769532 2.5 6.035156 2.5 1.109376-.003906 2.210938-.21875 3.242188-.636719.925781-.421875 1.773438-.996094 2.5-1.707031.078125-.078125.1875-.105469.265625-.179687l25.597656-25.601563c2.21875-2.140625 3.109375-5.316406 2.328125-8.296875-.78125-2.984375-3.109375-5.316406-6.09375-6.097656-2.984375-.777344-6.15625.109375-8.300781 2.328125l-11.007813 11.058593v-64.734374c0-4.710938-3.820312-8.53125-8.53125-8.53125zm0 0"/><path d="m102.40625 145.117188c-4.710938 0-8.53125 3.820312-8.53125 8.53125v64.734374l-11.035156-11.03125c-2.144532-2.21875-5.316406-3.109374-8.300782-2.328124-2.980468.78125-5.3125 3.109374-6.09375 6.09375-.78125 2.984374.109376 6.15625 2.328126 8.300781l25.601562 25.597656c1.597656 1.601563 3.769531 2.5 6.03125 2.5 1.113281-.003906 2.210938-.21875 3.242188-.636719.929687-.421875 1.773437-.996094 2.5-1.707031.078124-.078125.1875-.105469.265624-.179687l25.601563-25.601563c2.214844-2.140625 3.105469-5.316406 2.324219-8.296875-.78125-2.984375-3.109375-5.316406-6.09375-6.097656-2.984375-.777344-6.15625.109375-8.296875 2.328125l-11.007813 11.058593v-64.734374c0-4.710938-3.820312-8.53125-8.535156-8.53125zm0 0"/><path d="m409.605469 145.117188c-4.710938 0-8.53125 3.820312-8.53125 8.53125v64.734374l-11.035157-11.03125c-2.140624-2.21875-5.316406-3.109374-8.296874-2.328124-2.984376.78125-5.316407 3.109374-6.097657 6.09375-.777343 2.984374.109375 6.15625 2.328125 8.300781l25.601563 25.597656c1.597656 1.601563 3.769531 2.5 6.03125 2.5 1.113281-.003906 2.214843-.21875 3.242187-.636719.929688-.421875 1.773438-.996094 2.5-1.707031.078125-.078125.191406-.105469.265625-.179687l25.601563-25.601563c2.21875-2.140625 3.105468-5.316406 2.328125-8.296875-.78125-2.984375-3.113281-5.316406-6.097657-6.097656-2.980468-.777344-6.15625.109375-8.296874 2.328125l-11.007813 11.058593v-64.734374c0-4.710938-3.820313-8.53125-8.535156-8.53125zm0 0"/><path d="m.1875 343.167969c.46875 2.214843 1.796875 4.152343 3.695312 5.386719 1.898438 1.234374 4.207032 1.660156 6.421876 1.191406l33.144531-6.980469c.136719 1.125.273437 2.253906.445312 3.292969 1.246094 7.519531 2.175781 15.113281 3.105469 22.71875.527344 4.265625 1.058594 8.582031 1.648438 12.925781 3.34375 23.605469 15.734374 27.433594 22.824218 27.621094h.675782c19.164062 0 21.640624-20.476563 22.835937-30.367188.1875-1.5625.363281-3.054687.636719-4.832031l.128906-.910156c1.304688-6.4375 2.132812-12.871094 2.9375-19.082032l.398438-3.089843c.804687-5.972657 2.261718-7.808594 3.320312-8.386719 1.058594.578125 2.519531 2.386719 3.3125 8.386719l.410156 3.089843c.800782 6.210938 1.628906 12.644532 2.882813 18.824219l.238281 1.59375c.214844 1.351563.394531 2.84375.582031 4.40625 1.210938 10.015625 3.660157 31.027344 23.507813 30.359375 7.089844-.179687 19.480468-4.007812 22.835937-27.691406.578125-4.265625 1.109375-8.582031 1.636719-12.875.929688-7.601562 1.859375-15.199219 3.097656-22.691406.1875-1.109375.332032-2.300782.480469-3.515625l39.761719 7.28125c18.125 2.894531 36.449218 4.351562 54.804687 4.351562 18.449219-.003906 36.871094-1.46875 55.089844-4.386719l39.578125-7.246093c.136719 1.203125.28125 2.390625.46875 3.492187 1.246094 7.515625 2.175781 15.113282 3.105469 22.714844.53125 4.265625 1.058593 8.585938 1.648437 12.929688 3.34375 23.628906 15.734375 27.457031 22.824219 27.636718h.675781c19.164063 0 21.640625-20.480468 22.835938-30.367187.1875-1.5625.367187-3.058594.640625-4.832031l.125-.914063c1.308593-6.433594 2.132812-12.867187 2.9375-19.078125l.398437-3.089844c.804688-5.972656 2.261719-7.808594 3.320313-8.386718 1.058593.578124 2.5625 2.386718 3.3125 8.386718l.410156 3.089844c.800781 6.210938 1.628906 12.644531 2.882813 18.824219l.238281 1.59375c.214843 1.347656.394531 2.84375.582031 4.40625 1.210938 10.015625 3.933594 31.023437 23.507812 30.359375 7.09375-.179688 19.484376-4.011719 22.835938-27.691406.582031-4.265626 1.109375-8.582032 1.636719-12.875.933593-7.605469 1.863281-15.199219 3.097656-22.691407.179687-1.039062.316406-2.183593.453125-3.320312l33.144531 7.007812c2.984375.628907 6.074219-.378906 8.113281-2.644531 2.039063-2.269531 2.710938-5.453125 1.765626-8.351562-.941407-2.898438-3.363282-5.074219-6.347657-5.703126l-35.957031-7.605468c0-.398438.058594-.851563.058594-1.109375 0-.597657 0-1.269531-.085938-1.917969 0-1.066406-.074218-2.175781-.160156-3.414062v-.820313c-3.105469-30.589844-28.925781-53.824219-59.671875-53.699219-30.75.125-56.378906 23.570313-59.234375 54.1875-.082031 1.226563-.160156 2.464844-.179688 3.761719-.058593.648437-.082031 1.324219-.082031 1.921875 0 .210938 0 .640625.050781.988281l-41.761718 7.679688c-34.484375 5.503906-69.625 5.503906-104.109375 0l-41.949219-7.679688c0-.347656.050781-.777343.050781-.988281 0-.597656 0-1.273438-.085937-1.921875 0-1.066406-.074219-2.175781-.160156-3.414063v-.816406c-3.105469-30.59375-28.925782-53.828125-59.671876-53.703125-30.75.125-56.378906 23.574219-59.230468 54.1875-.085938 1.230469-.164063 2.464844-.179688 3.765625-.207031.621094-.207031 1.296875-.207031 1.894532 0 .238281 0 .707031.0625 1.105468l-35.960937 7.605469c-2.214844.46875-4.15625 1.796875-5.390626 3.695313-1.238281 1.898437-1.667968 4.210937-1.195312 6.425781zm409.417969-61.5c21.824219-.09375 40.167969 16.355469 42.445312 38.058593.058594 1.039063.136719 2.089844.136719 3.199219v2.558594c.230469 5.910156-.074219 11.824219-.921875 17.675781-1.28125 7.765625-2.242187 15.589844-3.199219 23.421875-.519531 4.265625-1.042968 8.449219-1.605468 12.613281-.425782 3.019532-2.148438 12.867188-6.347657 12.980469-3.039062.082031-4.558593-2.125-6.152343-15.363281-.203126-1.773438-.417969-3.472656-.691407-5.238281l-.289062-1.851563c-1.179688-5.835937-1.972657-11.945312-2.742188-17.917968l-.40625-3.125c-2.347656-17.792969-11.769531-22.546876-19.261719-23.40625-.644531-.078126-1.300781-.078126-1.945312 0-7.492188.851562-16.914062 5.613281-19.269531 23.40625l-.398438 3.125c-.769531 5.921874-1.5625 12.046874-2.792969 18.140624l-.273437 1.816407c-.238281 1.546875-.449219 3.242187-.65625 5.019531-1.59375 13.214844-3.300781 15.214844-6.144531 15.359375-4.207032-.113281-5.972656-9.960937-6.347656-12.929687-.570313-4.214844-1.09375-8.4375-1.613282-12.664063-.953125-7.832031-1.917968-15.65625-3.207031-23.449219-.84375-5.914062-1.148437-11.890625-.90625-17.859375v-2.398437c0-1.039063.070313-2.039063.144531-3.148438 2.308594-21.683594 20.640625-38.105468 42.445313-38.023437zm-307.199219 0c21.820312-.09375 40.167969 16.355469 42.445312 38.058593.058594 1.039063.136719 2.089844.136719 3.199219v2.558594c.230469 5.910156-.078125 11.824219-.921875 17.675781-1.28125 7.765625-2.246094 15.589844-3.199218 23.421875-.519532 4.265625-1.042969 8.449219-1.605469 12.613281-.425781 3.019532-2.148438 12.867188-6.347657 12.980469-2.886718.082031-4.558593-2.125-6.152343-15.363281-.207031-1.773438-.417969-3.472656-.691407-5.238281l-.289062-1.851563c-1.179688-5.835937-1.972656-11.945312-2.742188-17.917968l-.410156-3.125c-2.34375-17.792969-11.765625-22.546876-19.257812-23.40625-.648438-.078126-1.300782-.078126-1.945313 0-7.492187.851562-16.914062 5.613281-19.269531 23.40625l-.398438 3.125c-.769531 5.921874-1.5625 12.046874-2.792968 18.140624l-.273438 1.816407c-.238281 1.546875-.453125 3.242187-.65625 5.019531-1.605468 13.214844-3.328125 15.214844-6.144531 15.359375-4.207031-.113281-5.972656-9.960937-6.347656-12.929687-.570313-4.214844-1.09375-8.4375-1.613281-12.664063-.957032-7.832031-1.921876-15.65625-3.207032-23.449219-.835937-5.875-1.136718-11.8125-.898437-17.738281v-2.398437c0-1.042969.070312-2.039063.144531-3.148438 2.25-21.726562 20.59375-38.21875 42.4375-38.144531zm0 0"/></svg>