<svg height="503pt" viewBox="0 0 503 503.99266" width="503pt" xmlns="http://www.w3.org/2000/svg"><path d="m495.710938 369.3125h-211.054688c1.9375-4.507812 4.085938-9.074219 6.597656-13.765625 2.878906-5.414063 6.035156-10.617187 9.183594-15.8125 6.246094-9.699219 11.640625-19.921875 16.121094-30.554687 15.253906-38.878907 19.304687-92.117188-14.929688-124.933594-33.105468-31.777344-91.640625-32.960938-129.09375-3.945313-37.464844-29.015625-96.011718-27.824219-129.082031 3.933594-34.269531 32.828125-30.214844 86.066406-14.941406 124.953125 4.492187 10.636719 9.894531 20.867188 16.152343 30.570312 3.136719 5.1875 6.292969 10.382813 9.164063 15.789063 2.519531 4.691406 4.660156 9.230469 6.589844 13.765625h-51.527344c-4.636719 0-8.394531 3.757812-8.394531 8.390625 0 4.636719 3.757812 8.394531 8.394531 8.394531h57.410156c1.699219 5.765625 2.921875 11.660156 3.660157 17.625 1.75 19.78125 5.078124 39.390625 9.953124 58.636719 3.921876 14.546875 11.222657 41.632813 35.453126 41.632813 7.050781 0 28.539062 0 42.605468-100.898438 2.730469-19.304688 10.46875-21.425781 14.554688-21.972656 4.070312.539062 11.84375 2.636718 14.582031 21.957031 14.050781 100.914063 35.542969 100.914063 42.613281 100.914063 24.222656 0 31.523438-27.085938 35.425782-41.570313 4.859374-19.277344 8.191406-38.90625 9.972656-58.707031.734375-5.960938 1.957031-11.851563 3.652344-17.617188h216.9375c4.632812 0 8.390624-3.757812 8.390624-8.394531 0-4.632813-3.757812-8.390625-8.390624-8.390625zm-246.769532 88.632812c-3.808594 14.136719-8.746094 29.21875-19.230468 29.21875-4.632813-.546874-17.078126-22.386718-26.019532-86.453124-3.152344-22.300782-13.328125-34.546876-30.214844-36.425782-.324218.007813-.644531.039063-.964843.089844-.332031-.050781-.664063-.082031-1-.089844-16.894531 1.878906-27.058594 14.132813-30.214844 36.441406-8.921875 64.019532-21.371094 85.882813-25.976563 86.453126-10.492187 0-15.4375-15.105469-19.257812-29.277344-4.644531-18.417969-7.8125-37.175782-9.464844-56.101563-2.5-19.027343-8.609375-37.402343-18.003906-54.136719-3.023438-5.671874-6.328125-11.136718-9.628906-16.59375-5.726563-8.898437-10.6875-18.273437-14.824219-28.015624-13.261719-33.816407-17.355469-79.605469 10.914063-106.699219 28.269531-27.09375 81.542968-26.648438 111.808593.992187.082031.074219.191407.089844.285157.167969.09375.074219.125.191406.226562.257813.34375.277343 34.722656 27.261718 43.277344 56.398437 1.050781 3.578125 4.339844 6.035156 8.074218 6.023437.796876.003907 1.59375-.113281 2.359376-.34375 2.136718-.625 3.9375-2.074218 5.007812-4.027343 1.066406-1.953125 1.316406-4.25.691406-6.386719-7.335937-24.988281-29.058594-47.238281-41.019531-58.035156 30.953125-21.542969 78.191406-20.042969 104.246094 4.960937 28.277343 27.085938 24.179687 72.875 10.910156 106.683594-4.144531 9.738281-9.117187 19.101563-14.863281 27.992187-3.300782 5.453126-6.613282 10.910157-9.636719 16.609376-9.402344 16.726562-15.511719 35.101562-18.003906 54.128906-1.691407 18.941406-4.859375 37.722656-9.476563 56.167968zm0 0"/><path d="m79.007812 199.671875c-21.707031 12.578125-32.757812 37.773437-27.3125 62.261719.824219 3.890625 4.265626 6.671875 8.242188 6.65625.585938 0 1.171875-.058594 1.746094-.175782 2.179687-.460937 4.089844-1.765624 5.304687-3.632812 1.214844-1.867188 1.636719-4.140625 1.175781-6.320312-3.902343-17.238282 3.730469-35.027344 18.910157-44.074219 3.914062-2.300781 5.292969-7.292969 3.109375-11.273438-2.179688-3.980469-7.132813-5.503906-11.175782-3.441406zm0 0"/><path d="m487.316406 50.359375h-75.1875l-185.796875-16.15625c-3.730469-19.8125-21.019531-34.171875-41.179687-34.203125h-16.789063c-23.164062.0273438-41.9375 18.800781-41.964843 41.96875v58.753906c0 9.269532 7.515624 16.785156 16.785156 16.785156h25.179687v25.179688c-4.632812 0-8.390625 3.757812-8.390625 8.394531s3.757813 8.394531 8.390625 8.394531h16.789063c4.636718 0 8.394531-3.757812 8.394531-8.394531s-3.757813-8.394531-8.394531-8.394531v-25.179688h25.179687c9.273438 0 16.789063-7.515624 16.789063-16.785156v-5.925781l182.539062 47.625c.691406.175781 1.402344.265625 2.113282.265625h75.542968c9.269532 0 16.785156-7.515625 16.785156-16.785156v-58.753906c0-9.273438-7.515624-16.789063-16.785156-16.789063zm-344.132812 50.363281v-58.753906c0-13.910156 11.273437-25.183594 25.179687-25.183594h16.789063c13.90625 0 25.179687 11.273438 25.179687 25.183594v58.753906zm83.9375-49.597656 176.261718 15.324219v56.984375l-176.261718-45.980469zm260.195312 74.777344h-67.148437v-58.753906h67.148437zm0 0"/></svg>